<?xml version="1.0" encoding="UTF-8"?>
<svg width="44px" height="41px" viewBox="0 0 44 41" version="1.1" xmlns="http://www.w3.org/2000/svg" xmlns:xlink="http://www.w3.org/1999/xlink">
    <!-- Generator: Sketch 52.6 (67491) - http://www.bohemiancoding.com/sketch -->
    <title>Swipe</title>
    <desc>Created with Sketch.</desc>
    <g id="Designs" stroke="none" stroke-width="1" fill="none" fill-rule="evenodd">
        <g id="Content-Screen-1" transform="translate(-1529.000000, -206.000000)">
            <g id="Swipe" transform="translate(1531.000000, 207.000000)">
                <g id="Group-6" transform="translate(27.000000, 0.000000)" stroke="#423636" stroke-width="2">
                    <path d="M1.74307429,6.38671875 L11.2575382,6.38671875" id="Line-3" stroke-linecap="square"></path>
                    <polyline id="Shape" transform="translate(6.500000, 6.500000) rotate(-45.000000) translate(-6.500000, -6.500000) " points="11 2 11 11 2 11"></polyline>
                </g>
                <path d="M37.2135603,30.1515495 C37.2135603,35.5907387 32.8693824,40 27.4997938,40 C22.1306176,40 17.7777778,35.5907387 17.7777778,30.1515495 L17.7777778,30.1369258 L17.7802526,7.36277576 C17.7831399,6.05708624 18.8287619,5 20.1181562,5 C21.4096128,5 22.4564722,6.06001098 22.4564722,7.36820743 C22.4564722,7.38283115 22.4544098,16.4507927 22.4544098,16.4507927 C22.9163809,15.6665433 23.800313,15.1354933 24.8170618,15.1354933 C26.3114557,15.1354933 27.5233048,16.2819931 27.5233048,17.6958982 C27.5233048,17.7280704 27.5179426,18.2177562 27.5179426,18.2177562 C27.9922879,17.4782136 28.8481718,16.9814249 29.8294478,16.9814249 C31.3242542,16.9814249 32.5352783,18.1283426 32.5352783,19.5422476 C32.5352783,19.5744198 32.5303286,20.2429329 32.5303286,20.2429329 C33.0005492,19.6370929 33.7656887,19.2414168 34.6318845,19.2414168 C36.0623449,19.2414168 37.2222222,20.3164693 37.2222222,21.6422142 C37.2222222,23.3235245 37.2123228,30.1273159 37.2123228,30.1273159 L37.2135603,30.1515495 Z" id="Stroke-1" fill="#423636"></path>
                <g id="Group-6-Copy" transform="translate(6.500000, 6.500000) rotate(180.000000) translate(-6.500000, -6.500000) " stroke="#423636" stroke-width="2">
                    <path d="M1.74307429,6.38671875 L11.2575382,6.38671875" id="Line-3" stroke-linecap="square"></path>
                    <polyline id="Shape" transform="translate(6.500000, 6.500000) rotate(-45.000000) translate(-6.500000, -6.500000) " points="11 2 11 11 2 11"></polyline>
                </g>
            </g>
        </g>
    </g>
</svg>