<?xml version="1.0" encoding="UTF-8"?>
<svg width="38px" height="58px" viewBox="0 0 38 58" version="1.1" xmlns="http://www.w3.org/2000/svg" xmlns:xlink="http://www.w3.org/1999/xlink">
    <!-- Generator: Sketch 52.6 (67491) - http://www.bohemiancoding.com/sketch -->
    <title>Click Icon</title>
    <desc>Created with Sketch.</desc>
    <g id="Designs" stroke="none" stroke-width="1" fill="none" fill-rule="evenodd">
        <g id="Main-Screen---Hotspots" transform="translate(-50.000000, -586.000000)">
            <g id="Instruction-info" transform="translate(51.611940, 579.000000)">
                <g id="Click-Icon" transform="translate(0.000000, 9.000000)">
                    <path d="M14.3880597,28 C22.1200462,28 28.3880597,21.7319865 28.3880597,14 C28.3880597,6.2680135 22.1200462,0 14.3880597,0 C6.6560732,0 0.388059701,6.2680135 0.388059701,14 C0.388059701,21.7319865 6.6560732,28 14.3880597,28 Z" id="Oval-Copy" stroke="#423636" stroke-width="3" stroke-linecap="round" stroke-linejoin="bevel" stroke-dasharray="0,6"></path>
                    <path d="M36.3769229,43.3377065 C36.3769229,50.3309498 30.7915514,56 23.8877945,56 C16.984568,56 11.3880597,50.3309498 11.3880597,43.3377065 L11.3880597,43.3189046 L11.3912416,14.0378546 C11.3949539,12.3591109 12.7393251,11 14.3971176,11 C16.0575618,11 17.4035239,12.3628713 17.4035239,14.0448381 C17.4035239,14.0636401 17.4008723,25.7224477 17.4008723,25.7224477 C17.9948351,24.7141271 19.1313193,24.0313485 20.4385678,24.0313485 C22.3599313,24.0313485 23.918023,25.5054197 23.918023,27.3232977 C23.918023,27.3646619 23.9111288,27.994258 23.9111288,27.994258 C24.5210013,27.0434175 25.6214234,26.4046891 26.8830641,26.4046891 C28.8049579,26.4046891 30.361989,27.8792976 30.361989,29.6971755 C30.361989,29.7385398 30.3556251,30.5980565 30.3556251,30.5980565 C30.9601944,29.8191195 31.9439452,29.310393 33.0576255,29.310393 C34.8967888,29.310393 36.3880597,30.6926034 36.3880597,32.3971326 C36.3880597,34.5588172 36.3753319,43.306549 36.3753319,43.306549 L36.3769229,43.3377065 Z" id="Stroke-1" fill="#423636"></path>
                </g>
            </g>
        </g>
    </g>
</svg>